<svg xmlns="http://www.w3.org/2000/svg" viewBox="-3 -3 184.5 106.1">
  <path d="m112.6 81.3 10.7-7.7h-5.3l-13.1 9.4v-9.4h-3.7v17.9h3.7v-4.7l4.8-3.4 8.9 8.2h5.2l-11.2-10.3M88 80.7s-5.4-.2-5.4-.2c-3.5-.2-4.2-.8-4.2-1.8 0-1.9 3.3-2.3 6.1-2.3 4.5 0 6.7.9 8.5 1.8l.4.2 1.6-2.9-.4-.2c-1.9-1-4.5-2-10.1-2-6.2 0-9.8 2.1-9.8 5.6 0 4 3.9 4.7 7.4 4.9l5.4.2c3.9.2 4.6.8 4.6 2 0 1.7-2.4 2.7-6.7 2.7-4.7 0-7.5-1.2-9.1-2.2l-.4-.2-1.9 2.8.4.3c2.7 1.8 6.2 2.6 11 2.6 6.6 0 10.5-2.2 10.5-6 0-4.1-3.8-4.9-7.9-5.1m-26.7 1.5h-8.2v-5.4h8.2c4.5 0 5.3.9 5.3 2.6 0 1.7-.9 2.8-5.3 2.8zm.3-8.6H49.4v17.9h3.7v-6.1h8.5c7.3 0 8.8-3.3 8.8-6.1 0-3.8-2.9-5.7-8.8-5.7m28.7-12.1h-8.8l4.4-6.5 4.4 6.5zm-4.4-12.4L73.2 68.1h4l2.2-3.3h13.1l2.3 3.3h4.1l-13-18.9m60.8 12.4h-8.8l4.4-6.5 4.4 6.5zm-4.4-12.4-12.7 18.9h4l2.2-3.3h13.1l2.3 3.3h4.1l-13-18.9m24.3 8.6v3.2h8.4v2.8c-1.6 1-3.8 1.5-6.7 1.5-5.5 0-8.2-2-8.2-6.2 0-4.1 2.8-6.1 8.2-6.1 4.1 0 5.9.8 7.4 2.1l.4.3 2.1-2.6-.3-.3c-2.3-1.8-5.2-2.6-9.4-2.6-7.5 0-12.1 3.6-12.1 9.3 0 5.8 4.5 9.2 12.1 9.2 4.4 0 7.7-1 10-2.9l.2-.1v-7.6h-12m-39.1-7.6-5.7 12-7.5-12.9-7.1 12.9-6-12h-4l9.6 19 7.5-13.4 7.8 13.4 9.3-19h-3.9m-74.2 3.2h8.2c3.8 0 4.8.4 4.8 1.9 0 1.6-1.1 2.1-4.8 2.1h-8.2v-4zm8 11.5h-8v-4.3h8c5.2 0 6.1.5 6.1 2.1 0 1.8-1.1 2.2-6.1 2.2zm6.8-6.2c1.3-.7 1.9-1.9 1.9-3.5 0-4.4-4-5-8.3-5H40.6v17.9h12.1c4.8 0 9.5-.4 9.5-5.3 0-2.1-1.1-3.5-3-4.2" fill="#000"/>
  <path d="M18.1 0v100.1L43.4 50.2 18.1 0m-2.7 100.1V39.4L0 69.7l15.4 30.4" fill="#900"/>
</svg>
