<?xml version="1.0" encoding="utf-8"?>
<!-- Designed by Vexels.com - 2016 All Rights Reserved - https://vexels.com/terms-and-conditions/  -->

<svg version="1.1" id="Layer_1" xmlns="http://www.w3.org/2000/svg" xmlns:xlink="http://www.w3.org/1999/xlink" x="0px" y="0px"
	 width="1200px" height="1200px" viewBox="0 0 1200 1200" enable-background="new 0 0 1200 1200" xml:space="preserve">
<g>
	<g>
		<path d="M141.7,946.65h-40.508v37.555h45.138v11.304H87.738V891.303h56.258v11.302h-42.804v32.925H141.7V946.65z"/>
		<path d="M224.796,975.089c0,7.731,0.181,14.513,0.62,20.419h-12.034l-0.765-12.215h-0.329
			c-3.536,6.017-11.447,13.891-24.72,13.891c-11.74,0-25.814-6.489-25.814-32.742V920.69h13.6v41.419
			c0,14.221,4.338,23.809,16.701,23.809c9.114,0,15.459-6.343,17.938-12.36c0.765-2.042,1.24-4.521,1.24-6.963V920.69h13.564
			V975.089z"/>
		<path d="M247.364,944.026c0-8.824-0.145-16.372-0.62-23.335h11.888l0.474,14.694h0.62c3.39-10.064,11.593-16.407,20.708-16.407
			c1.533,0,2.627,0.146,3.866,0.474v12.834c-1.387-0.329-2.772-0.474-4.632-0.474c-9.59,0-16.37,7.256-18.229,17.464
			c-0.329,1.859-0.622,4.012-0.622,6.345v39.888h-13.454V944.026z"/>
		<path d="M364.04,957.48c0,27.674-19.14,39.705-37.226,39.705c-20.272,0-35.878-14.839-35.878-38.503
			c0-25.012,16.372-39.705,37.082-39.705C349.529,918.977,364.04,934.581,364.04,957.48z M304.682,958.245
			c0,16.372,9.443,28.768,22.716,28.768c13.015,0,22.751-12.215,22.751-29.059c0-12.689-6.343-28.768-22.424-28.768
			C311.646,929.186,304.682,944.026,304.682,958.245z"/>
		<path d="M381.177,945.12c0-9.59-0.291-17.32-0.62-24.429h12.215l0.62,12.834h0.329c5.543-9.116,14.365-14.548,26.58-14.548
			c18.086,0,31.686,15.314,31.686,38.029c0,26.908-16.407,40.18-34.019,40.18c-9.881,0-18.558-4.339-23.007-11.74h-0.329v40.656
			h-13.454V945.12z M394.631,965.063c0,2.007,0.329,3.829,0.62,5.543c2.479,9.407,10.684,15.933,20.419,15.933
			c14.365,0,22.715-11.74,22.715-28.913c0-14.985-7.876-27.819-22.279-27.819c-9.261,0-17.938,6.635-20.528,16.844
			c-0.474,1.714-0.948,3.683-0.948,5.543V965.063z"/>
		<path d="M476.669,960.543c0.328,18.412,12.069,25.995,25.669,25.995c9.735,0,15.607-1.714,20.71-3.864l2.333,9.735
			c-4.813,2.151-12.98,4.775-24.903,4.775c-23.006,0-36.752-15.314-36.752-37.883c0-22.532,13.271-40.325,35.076-40.325
			c24.429,0,30.883,21.476,30.883,35.259c0,2.77-0.291,4.921-0.437,6.308H476.669z M516.559,950.808
			c0.146-8.641-3.538-22.096-18.851-22.096c-13.746,0-19.798,12.689-20.856,22.096H516.559z"/>
		<path d="M599.07,977.57c0,6.489,0.329,12.797,1.24,17.938h-12.36l-1.059-9.444h-0.472c-4.195,5.871-12.215,11.121-22.899,11.121
			c-15.132,0-22.861-10.646-22.861-21.474c0-18.086,16.079-27.967,44.992-27.821v-1.531c0-6.198-1.714-17.356-17.027-17.356
			c-6.928,0-14.22,2.188-19.469,5.578l-3.063-8.933c6.162-4.047,15.131-6.672,24.575-6.672c22.861,0,28.404,15.605,28.404,30.592
			V977.57z M585.945,957.334c-14.841-0.329-31.685,2.296-31.685,16.844c0,8.787,5.871,12.98,12.834,12.98
			c9.735,0,15.898-6.198,18.084-12.541c0.474-1.387,0.767-2.918,0.767-4.34V957.334z"/>
		<path d="M621.02,940.927c0-7.731-0.146-14.039-0.62-20.236h12.069l0.765,12.36h0.291c3.719-7.111,12.398-14.074,24.758-14.074
			c10.355,0,26.434,6.198,26.434,31.831v44.701h-13.6v-43.133c0-12.069-4.521-22.133-17.32-22.133
			c-8.968,0-15.933,6.381-18.229,13.928c-0.62,1.714-0.948,4.047-0.948,6.343v44.994h-13.6V940.927z"/>
		<path d="M753.447,891.303v61.693c0,23.335,10.355,33.216,24.284,33.216c15.459,0,25.34-10.174,25.34-33.216v-61.693h13.6v60.744
			c0,32.012-16.844,45.138-39.414,45.138c-21.33,0-37.409-12.215-37.409-44.518v-61.364H753.447z"/>
		<path d="M839.531,940.927c0-7.731-0.146-14.039-0.62-20.236h12.034l0.801,12.36h0.293c3.719-7.111,12.396-14.074,24.72-14.074
			c10.391,0,26.471,6.198,26.471,31.831v44.701h-13.602v-43.133c0-12.069-4.519-22.133-17.318-22.133
			c-8.97,0-15.933,6.381-18.267,13.928c-0.62,1.714-0.911,4.047-0.911,6.343v44.994h-13.602V940.927z"/>
		<path d="M940.457,899.651c0.146,4.632-3.282,8.35-8.677,8.35c-4.777,0-8.205-3.719-8.205-8.35c0-4.775,3.573-8.494,8.496-8.494
			C937.176,891.157,940.457,894.876,940.457,899.651z M925.289,995.509V920.69h13.6v74.818H925.289z"/>
		<path d="M1029.168,957.48c0,27.674-19.18,39.705-37.264,39.705c-20.236,0-35.878-14.839-35.878-38.503
			c0-25.012,16.407-39.705,37.118-39.705C1014.62,918.977,1029.168,934.581,1029.168,957.48z M969.809,958.245
			c0,16.372,9.407,28.768,22.715,28.768c12.98,0,22.715-12.215,22.715-29.059c0-12.689-6.345-28.768-22.424-28.768
			C976.772,929.186,969.809,944.026,969.809,958.245z"/>
		<path d="M1046.304,940.927c0-7.731-0.181-14.039-0.62-20.236h12.032l0.767,12.36h0.327c3.683-7.111,12.362-14.074,24.722-14.074
			c10.353,0,26.434,6.198,26.434,31.831v44.701h-13.6v-43.133c0-12.069-4.486-22.133-17.32-22.133
			c-8.968,0-15.933,6.381-18.229,13.928c-0.62,1.714-0.948,4.047-0.948,6.343v44.994h-13.564V940.927z"/>
	</g>
	<g>
		<g>
			<defs>
				<rect id="SVGID_1_" x="50" y="173.9" width="1100" height="641.681"/>
			</defs>
			<clipPath id="SVGID_2_">
				<use xlink:href="#SVGID_1_"  overflow="visible"/>
			</clipPath>
			<rect x="50" y="173.9" clip-path="url(#SVGID_2_)" fill="#213095" width="1100" height="641.681"/>
			<polygon clip-path="url(#SVGID_2_)" fill="#F5CB27" points="599.981,245.218 591.997,269.828 566.11,269.828 587.039,285.069 
				579.052,309.718 599.981,294.478 620.948,309.718 612.961,285.069 633.89,269.828 608.003,269.828 			"/>
			<polygon clip-path="url(#SVGID_2_)" fill="#F5CB27" points="608.003,697.63 599.981,672.98 591.997,697.63 566.11,697.63 
				587.039,712.871 579.052,737.481 599.981,722.278 620.948,737.481 612.961,712.871 633.89,697.63 			"/>
			<polygon clip-path="url(#SVGID_2_)" fill="#F5CB27" points="386.1,508.394 407.064,523.6 399.08,498.952 420.009,483.747 
				394.122,483.747 386.1,459.099 378.116,483.747 352.191,483.747 373.155,498.952 365.171,523.6 			"/>
			<polygon clip-path="url(#SVGID_2_)" fill="#F5CB27" points="493.078,273.875 485.056,298.523 459.167,298.523 480.096,313.728 
				472.112,338.376 493.078,323.135 514.005,338.376 505.985,313.728 526.987,298.523 501.062,298.523 			"/>
			<polygon clip-path="url(#SVGID_2_)" fill="#F5CB27" points="414.795,352.158 406.773,376.806 380.849,376.806 401.815,392.047 
				393.793,416.659 414.795,401.454 435.724,416.659 427.702,392.047 448.667,376.806 422.744,376.806 			"/>
			<polygon clip-path="url(#SVGID_2_)" fill="#F5CB27" points="422.779,590.687 414.795,566.077 406.773,590.687 380.849,590.687 
				401.815,605.928 393.793,630.54 414.795,615.337 435.724,630.54 427.702,605.928 448.667,590.687 			"/>
			<polygon clip-path="url(#SVGID_2_)" fill="#F5CB27" points="501.062,669.008 493.078,644.358 485.056,669.008 459.167,669.008 
				480.096,684.211 472.077,708.859 493.078,693.618 514.005,708.859 505.985,684.211 526.987,669.008 			"/>
			<polygon clip-path="url(#SVGID_2_)" fill="#F5CB27" points="847.809,483.747 821.922,483.747 813.9,459.099 805.878,483.747 
				779.991,483.747 800.92,498.952 792.936,523.6 813.9,508.394 834.829,523.6 826.844,498.952 			"/>
			<polygon clip-path="url(#SVGID_2_)" fill="#F5CB27" points="706.96,273.875 698.938,298.523 673.05,298.523 694.015,313.728 
				685.993,338.376 706.96,323.135 727.888,338.376 719.902,313.728 740.868,298.523 714.944,298.523 			"/>
			<polygon clip-path="url(#SVGID_2_)" fill="#F5CB27" points="772.298,392.047 764.276,416.659 785.241,401.454 806.207,416.659 
				798.185,392.047 819.151,376.806 793.227,376.806 785.241,352.158 777.221,376.806 751.332,376.806 			"/>
			<polygon clip-path="url(#SVGID_2_)" fill="#F5CB27" points="793.227,590.687 785.241,566.077 777.221,590.687 751.332,590.687 
				772.298,605.928 764.276,630.54 785.241,615.337 806.207,630.54 798.185,605.928 819.151,590.687 			"/>
			<polygon clip-path="url(#SVGID_2_)" fill="#F5CB27" points="714.944,669.008 706.96,644.358 698.938,669.008 673.05,669.008 
				694.015,684.211 685.993,708.859 706.96,693.618 727.888,708.859 719.902,684.211 740.868,669.008 			"/>
		</g>
	</g>
</g>
</svg>
