<?xml version="1.0" encoding="UTF-8"?>
<svg xmlns="http://www.w3.org/2000/svg" xmlns:xlink="http://www.w3.org/1999/xlink" viewBox="0 0 100 16.79" version="1.1">
<defs>
<clipPath id="clip1">
  <path d="M 0 0 L 100 0 L 100 16.789063 L 0 16.789063 Z M 0 0 "/>
</clipPath>
</defs>
<g id="surface1">
<g clip-path="url(#clip1)" clip-rule="nonzero">
<path style=" stroke:none;fill-rule:nonzero;fill:rgb(84.698486%,5.499268%,50.59967%);fill-opacity:1;" d="M 0 0.00390625 L 100 0.00390625 L 100 16.789063 L 0 16.789063 L 0 0.00390625 "/>
</g>
<path style=" stroke:none;fill-rule:nonzero;fill:rgb(100%,98.399353%,98.799133%);fill-opacity:1;" d="M 40.582031 3.117188 C 40.242188 2.832031 39.769531 2.714844 39.339844 2.820313 C 38.816406 2.9375 38.378906 3.367188 38.269531 3.890625 C 38.148438 4.386719 38.320313 4.941406 38.707031 5.273438 C 39.144531 5.683594 39.851563 5.753906 40.367188 5.457031 C 40.722656 5.246094 40.996094 4.886719 41.066406 4.476563 C 41.167969 3.980469 40.96875 3.4375 40.582031 3.117188 "/>
<path style=" stroke:none;fill-rule:nonzero;fill:rgb(100%,98.399353%,98.799133%);fill-opacity:1;" d="M 5.738281 11.597656 C 5.5625 11.558594 5.464844 11.371094 5.472656 11.199219 C 5.464844 8.628906 5.476563 6.058594 5.46875 3.488281 C 4.683594 3.496094 3.898438 3.492188 3.117188 3.492188 C 3.113281 6.105469 3.113281 8.722656 3.117188 11.335938 C 3.117188 12.132813 3.519531 12.957031 4.25 13.320313 C 5.015625 13.738281 5.914063 13.566406 6.746094 13.601563 C 6.746094 12.945313 6.746094 12.292969 6.742188 11.636719 C 6.410156 11.625 6.070313 11.667969 5.738281 11.597656 "/>
<path style=" stroke:none;fill-rule:nonzero;fill:rgb(100%,98.399353%,98.799133%);fill-opacity:1;" d="M 24.71875 8.0625 C 25.117188 8.0625 25.519531 8.058594 25.917969 8.0625 C 25.921875 7.460938 25.921875 6.855469 25.917969 6.253906 C 25.519531 6.253906 25.117188 6.253906 24.71875 6.253906 C 24.714844 5.527344 24.71875 4.804688 24.71875 4.078125 C 23.9375 4.078125 23.160156 4.078125 22.378906 4.078125 C 22.378906 4.800781 22.378906 5.527344 22.378906 6.253906 C 22.144531 6.253906 21.910156 6.253906 21.671875 6.253906 C 21.667969 6.855469 21.671875 7.460938 21.671875 8.0625 C 21.90625 8.0625 22.144531 8.0625 22.378906 8.0625 C 22.378906 9.175781 22.382813 10.292969 22.378906 11.40625 C 22.375 12.203125 22.828125 13.007813 23.558594 13.351563 C 24.289063 13.71875 25.132813 13.570313 25.921875 13.601563 C 25.917969 12.945313 25.921875 12.289063 25.917969 11.636719 C 25.613281 11.628906 25.304688 11.660156 25 11.605469 C 24.796875 11.546875 24.699219 11.324219 24.71875 11.125 C 24.71875 10.105469 24.71875 9.082031 24.71875 8.0625 "/>
<path style=" stroke:none;fill-rule:nonzero;fill:rgb(100%,98.399353%,98.799133%);fill-opacity:1;" d="M 60.90625 6.253906 C 60.503906 6.253906 60.101563 6.253906 59.703125 6.253906 C 59.703125 5.527344 59.703125 4.800781 59.703125 4.078125 C 58.921875 4.078125 58.144531 4.078125 57.363281 4.078125 C 57.363281 4.804688 57.363281 5.527344 57.363281 6.253906 C 57.136719 6.253906 56.90625 6.253906 56.675781 6.253906 C 56.671875 6.855469 56.671875 7.457031 56.671875 8.0625 C 56.90625 8.0625 57.136719 8.0625 57.363281 8.0625 C 57.367188 9.175781 57.363281 10.292969 57.363281 11.40625 C 57.363281 12.238281 57.859375 13.070313 58.640625 13.394531 C 59.355469 13.710938 60.152344 13.574219 60.90625 13.601563 C 60.90625 12.945313 60.90625 12.289063 60.90625 11.636719 C 60.597656 11.628906 60.289063 11.664063 59.984375 11.605469 C 59.78125 11.550781 59.695313 11.320313 59.703125 11.125 C 59.703125 10.105469 59.703125 9.082031 59.703125 8.0625 C 60.101563 8.0625 60.503906 8.0625 60.90625 8.0625 C 60.90625 7.460938 60.90625 6.855469 60.90625 6.253906 "/>
<path style=" stroke:none;fill-rule:nonzero;fill:rgb(100%,98.399353%,98.799133%);fill-opacity:1;" d="M 11.367188 11.515625 C 11.09375 11.777344 10.6875 11.789063 10.332031 11.757813 C 10.035156 11.734375 9.746094 11.507813 9.726563 11.195313 C 9.679688 10.847656 10.011719 10.5625 10.34375 10.546875 C 10.765625 10.527344 11.191406 10.546875 11.613281 10.539063 C 11.617188 10.871094 11.652344 11.277344 11.367188 11.515625 Z M 12.605469 6.25 C 11.742188 5.847656 10.765625 5.84375 9.835938 5.910156 C 9.0625 5.976563 8.3125 6.328125 7.800781 6.917969 C 8.292969 7.394531 8.765625 7.890625 9.261719 8.367188 C 9.496094 8.125 9.78125 7.914063 10.121094 7.875 C 10.515625 7.828125 10.953125 7.820313 11.304688 8.03125 C 11.617188 8.234375 11.632813 8.644531 11.613281 8.980469 C 10.835938 9.007813 10.046875 8.914063 9.277344 9.058594 C 8.589844 9.1875 7.933594 9.625 7.660156 10.285156 C 7.230469 11.332031 7.550781 12.734375 8.566406 13.320313 C 9.164063 13.667969 9.894531 13.742188 10.570313 13.625 C 11.003906 13.554688 11.378906 13.300781 11.6875 12.996094 C 11.683594 13.199219 11.683594 13.398438 11.683594 13.601563 C 12.445313 13.601563 13.207031 13.601563 13.96875 13.601563 C 13.96875 11.949219 13.96875 10.296875 13.96875 8.640625 C 13.96875 8.230469 13.910156 7.8125 13.753906 7.433594 C 13.542969 6.90625 13.113281 6.488281 12.605469 6.25 "/>
<path style=" stroke:none;fill-rule:nonzero;fill:rgb(100%,98.399353%,98.799133%);fill-opacity:1;" d="M 20.070313 9.121094 C 19.285156 8.675781 18.355469 8.773438 17.5 8.625 C 17.339844 8.585938 17.164063 8.472656 17.171875 8.289063 C 17.144531 8 17.457031 7.855469 17.699219 7.824219 C 18.328125 7.777344 19.03125 7.828125 19.535156 8.257813 C 20.015625 7.777344 20.5 7.304688 20.972656 6.8125 C 20.238281 6.0625 19.136719 5.875 18.128906 5.882813 C 17.25 5.84375 16.324219 6.074219 15.65625 6.664063 C 15.15625 7.105469 14.886719 7.773438 14.90625 8.433594 C 14.894531 9.054688 15.101563 9.726563 15.613281 10.113281 C 16.203125 10.574219 16.976563 10.621094 17.691406 10.683594 C 17.988281 10.722656 18.296875 10.707031 18.582031 10.808594 C 18.824219 10.886719 18.945313 11.222656 18.773438 11.417969 C 18.613281 11.59375 18.363281 11.644531 18.136719 11.679688 C 17.386719 11.765625 16.558594 11.613281 16.007813 11.058594 C 15.5 11.5625 15.003906 12.070313 14.492188 12.570313 C 14.730469 12.832031 15.019531 13.046875 15.328125 13.21875 C 16.132813 13.667969 17.085938 13.703125 17.988281 13.6875 C 18.886719 13.660156 19.84375 13.4375 20.5 12.785156 C 21.058594 12.230469 21.230469 11.382813 21.105469 10.625 C 21.015625 10 20.632813 9.417969 20.070313 9.121094 "/>
<path style=" stroke:none;fill-rule:nonzero;fill:rgb(100%,98.399353%,98.799133%);fill-opacity:1;" d="M 37.570313 9.210938 C 37.570313 8.628906 37.578125 8.03125 37.359375 7.480469 C 37.160156 6.992188 36.828125 6.542969 36.378906 6.257813 C 35.71875 5.863281 34.914063 5.8125 34.175781 5.9375 C 33.628906 6.023438 33.148438 6.320313 32.730469 6.667969 C 31.832031 5.625 30.085938 5.636719 29.105469 6.558594 C 29.109375 6.355469 29.105469 6.15625 29.105469 5.953125 C 28.347656 5.953125 27.585938 5.953125 26.824219 5.953125 C 26.824219 8.503906 26.824219 11.054688 26.824219 13.601563 C 27.601563 13.601563 28.382813 13.601563 29.160156 13.601563 C 29.160156 12.117188 29.164063 10.628906 29.160156 9.140625 C 29.152344 8.859375 29.191406 8.5625 29.363281 8.332031 C 29.667969 7.9375 30.300781 7.882813 30.679688 8.199219 C 30.9375 8.40625 31.019531 8.753906 31.019531 9.066406 C 31.019531 10.578125 31.019531 12.089844 31.019531 13.601563 C 31.796875 13.601563 32.578125 13.601563 33.355469 13.601563 C 33.355469 12.089844 33.355469 10.578125 33.355469 9.066406 C 33.359375 8.785156 33.417969 8.484375 33.617188 8.269531 C 33.933594 7.929688 34.515625 7.902344 34.871094 8.191406 C 35.113281 8.382813 35.214844 8.703125 35.214844 9 C 35.214844 10.535156 35.214844 12.066406 35.214844 13.601563 C 36 13.597656 36.789063 13.609375 37.574219 13.597656 C 37.566406 12.132813 37.574219 10.671875 37.570313 9.210938 "/>
<path style=" stroke:none;fill-rule:nonzero;fill:rgb(100%,98.399353%,98.799133%);fill-opacity:1;" d="M 48.332031 8.429688 C 48.320313 7.785156 48.128906 7.125 47.683594 6.644531 C 47.214844 6.089844 46.464844 5.84375 45.753906 5.882813 C 45.136719 5.882813 44.5625 6.160156 44.085938 6.53125 C 44.085938 6.339844 44.085938 6.144531 44.085938 5.953125 C 43.324219 5.957031 42.5625 5.949219 41.800781 5.957031 C 41.804688 8.503906 41.800781 11.054688 41.800781 13.601563 C 42.582031 13.601563 43.359375 13.601563 44.140625 13.601563 C 44.140625 12.089844 44.140625 10.578125 44.140625 9.066406 C 44.132813 8.753906 44.214844 8.414063 44.464844 8.207031 C 44.804688 7.917969 45.351563 7.921875 45.683594 8.21875 C 45.925781 8.429688 45.996094 8.765625 46 9.070313 C 46 10.582031 45.992188 12.09375 46.003906 13.605469 C 46.78125 13.59375 47.5625 13.617188 48.34375 13.59375 C 48.328125 11.871094 48.34375 10.152344 48.332031 8.429688 "/>
<path style=" stroke:none;fill-rule:nonzero;fill:rgb(100%,98.399353%,98.799133%);fill-opacity:1;" d="M 63.84375 8.964844 C 63.875 8.554688 64.042969 8.109375 64.433594 7.921875 C 64.902344 7.714844 65.554688 7.773438 65.871094 8.214844 C 66.039063 8.429688 66.082031 8.703125 66.128906 8.964844 C 65.367188 8.988281 64.605469 8.996094 63.84375 8.964844 Z M 68.394531 8.917969 C 68.300781 8.152344 67.996094 7.398438 67.453125 6.84375 C 66.828125 6.1875 65.910156 5.863281 65.015625 5.882813 C 64.117188 5.855469 63.191406 6.171875 62.566406 6.832031 C 61.929688 7.488281 61.636719 8.402344 61.570313 9.300781 C 61.523438 10.273438 61.585938 11.296875 62.066406 12.164063 C 62.429688 12.863281 63.125 13.34375 63.878906 13.535156 C 64.671875 13.730469 65.515625 13.742188 66.316406 13.578125 C 67.042969 13.429688 67.667969 12.996094 68.179688 12.476563 C 67.714844 12.007813 67.246094 11.539063 66.777344 11.070313 C 66.5 11.335938 66.179688 11.585938 65.792969 11.65625 C 65.347656 11.734375 64.855469 11.761719 64.449219 11.53125 C 64.09375 11.339844 63.855469 10.945313 63.859375 10.539063 C 65.382813 10.539063 66.90625 10.539063 68.429688 10.539063 C 68.421875 10 68.457031 9.457031 68.394531 8.917969 "/>
<path style=" stroke:none;fill-rule:nonzero;fill:rgb(100%,98.399353%,98.799133%);fill-opacity:1;" d="M 75.992188 7.988281 C 76.367188 7.972656 76.703125 8.183594 76.953125 8.445313 C 77.496094 7.929688 78.007813 7.382813 78.550781 6.863281 C 77.667969 5.929688 76.257813 5.710938 75.046875 5.984375 C 74.3125 6.148438 73.632813 6.582031 73.21875 7.214844 C 72.683594 8.027344 72.558594 9.035156 72.582031 9.984375 C 72.605469 10.964844 72.835938 12.003906 73.527344 12.738281 C 74.238281 13.488281 75.332031 13.753906 76.335938 13.679688 C 77.15625 13.628906 77.984375 13.304688 78.550781 12.695313 C 78.019531 12.171875 77.488281 11.644531 76.96875 11.113281 C 76.78125 11.277344 76.589844 11.453125 76.34375 11.527344 C 76.011719 11.621094 75.617188 11.574219 75.359375 11.328125 C 75.035156 11.023438 74.964844 10.554688 74.933594 10.136719 C 74.921875 9.621094 74.902344 9.085938 75.105469 8.601563 C 75.25 8.25 75.605469 7.984375 75.992188 7.988281 "/>
<path style=" stroke:none;fill-rule:nonzero;fill:rgb(100%,98.399353%,98.799133%);fill-opacity:1;" d="M 82.777344 11.101563 C 82.523438 11.742188 81.433594 11.738281 81.195313 11.09375 C 80.96875 10.519531 81.050781 9.886719 81.039063 9.28125 C 81.066406 8.832031 81.128906 8.234375 81.613281 8.050781 C 81.992188 7.925781 82.507813 7.976563 82.71875 8.359375 C 82.957031 8.789063 82.921875 9.304688 82.949219 9.78125 C 82.925781 10.222656 82.953125 10.6875 82.777344 11.101563 Z M 83.777344 6.320313 C 83.027344 5.882813 82.117188 5.804688 81.277344 5.933594 C 80.304688 6.085938 79.410156 6.71875 79.003906 7.621094 C 78.707031 8.300781 78.691406 9.054688 78.679688 9.78125 C 78.691406 10.457031 78.703125 11.15625 78.945313 11.800781 C 79.292969 12.714844 80.140625 13.390625 81.089844 13.59375 C 82.003906 13.789063 83.011719 13.703125 83.820313 13.21875 C 84.570313 12.777344 85.09375 11.984375 85.203125 11.121094 C 85.324219 10.230469 85.324219 9.320313 85.199219 8.433594 C 85.089844 7.554688 84.539063 6.757813 83.777344 6.320313 "/>
<path style=" stroke:none;fill-rule:nonzero;fill:rgb(100%,98.399353%,98.799133%);fill-opacity:1;" d="M 96.59375 7.65625 C 96.4375 7.125 96.09375 6.65625 95.65625 6.324219 C 94.984375 5.871094 94.128906 5.804688 93.347656 5.9375 C 92.800781 6.023438 92.324219 6.328125 91.898438 6.667969 C 91.4375 6.125 90.71875 5.84375 90.015625 5.882813 C 89.375 5.867188 88.777344 6.148438 88.277344 6.53125 C 88.277344 6.339844 88.28125 6.144531 88.28125 5.953125 C 87.515625 5.953125 86.757813 5.953125 85.992188 5.953125 C 85.996094 8.503906 85.992188 11.054688 85.992188 13.601563 C 86.773438 13.601563 87.550781 13.601563 88.332031 13.601563 C 88.332031 12.089844 88.332031 10.578125 88.332031 9.070313 C 88.332031 8.789063 88.394531 8.492188 88.585938 8.277344 C 88.910156 7.925781 89.515625 7.898438 89.875 8.214844 C 90.117188 8.425781 90.195313 8.761719 90.191406 9.070313 C 90.1875 10.582031 90.195313 12.089844 90.1875 13.597656 C 90.96875 13.605469 91.75 13.605469 92.53125 13.597656 C 92.523438 12.160156 92.53125 10.71875 92.527344 9.28125 C 92.53125 8.988281 92.527344 8.671875 92.691406 8.417969 C 92.945313 7.964844 93.613281 7.859375 94.019531 8.171875 C 94.28125 8.355469 94.398438 8.6875 94.386719 9 C 94.386719 10.535156 94.386719 12.066406 94.386719 13.601563 C 95.171875 13.601563 95.957031 13.601563 96.742188 13.601563 C 96.742188 12.089844 96.742188 10.582031 96.742188 9.070313 C 96.746094 8.597656 96.738281 8.113281 96.59375 7.65625 "/>
<path style=" stroke:none;fill-rule:nonzero;fill:rgb(100%,98.399353%,98.799133%);fill-opacity:1;" d="M 53.429688 5.957031 C 53.4375 7.46875 53.429688 8.976563 53.433594 10.484375 C 53.433594 10.777344 53.375 11.09375 53.15625 11.304688 C 52.820313 11.65625 52.199219 11.65625 51.855469 11.316406 C 51.65625 11.121094 51.578125 10.835938 51.578125 10.5625 C 51.574219 9.027344 51.578125 7.488281 51.574219 5.953125 C 50.796875 5.953125 50.015625 5.953125 49.238281 5.953125 C 49.242188 7.703125 49.234375 9.453125 49.238281 11.199219 C 49.253906 11.941406 49.558594 12.695313 50.144531 13.167969 C 51.097656 13.941406 52.601563 13.832031 53.488281 13.007813 C 53.484375 13.203125 53.484375 13.402344 53.484375 13.601563 C 54.25 13.605469 55.011719 13.601563 55.773438 13.601563 C 55.773438 11.054688 55.773438 8.503906 55.773438 5.953125 C 54.992188 5.957031 54.210938 5.949219 53.429688 5.957031 "/>
<path style=" stroke:none;fill-rule:nonzero;fill:rgb(100%,98.399353%,98.799133%);fill-opacity:1;" d="M 40.828125 6.253906 C 40.050781 6.25 39.273438 6.257813 38.496094 6.25 C 38.484375 8.703125 38.492188 11.152344 38.492188 13.601563 C 39.273438 13.597656 40.050781 13.609375 40.832031 13.597656 C 40.824219 11.152344 40.832031 8.703125 40.828125 6.253906 "/>
<path style=" stroke:none;fill-rule:nonzero;fill:rgb(100%,98.399353%,98.799133%);fill-opacity:1;" d="M 71.34375 10.878906 C 71.019531 10.667969 70.605469 10.601563 70.226563 10.683594 C 69.570313 10.8125 69.035156 11.433594 69.046875 12.113281 C 69.023438 12.628906 69.292969 13.140625 69.730469 13.414063 C 70.21875 13.726563 70.902344 13.722656 71.386719 13.390625 C 71.742188 13.152344 71.984375 12.753906 72.03125 12.324219 C 72.105469 11.765625 71.828125 11.175781 71.34375 10.878906 "/>
</g>
</svg>
