<svg xmlns="http://www.w3.org/2000/svg" viewBox="0.49 1.56 68.38 16.47">
  <path d="M37.51 1.56c.38 0 .73.18.95.49l4.38 6.59 4.39-6.59c.21-.3.57-.49.95-.49h1.19c.92 0 1.67.75 1.67 1.67v13.14c0 .92-.75 1.67-1.67 1.67-.92 0-1.67-.75-1.67-1.67V6.96l-3.68 5.19c-.57.8-1.77.8-2.34 0L37.99 6.96v9.4c0 .92-.75 1.67-1.67 1.67-.92 0-1.67-.75-1.67-1.67V3.23c0-.92.75-1.67 1.67-1.67h1.19zM67.2 1.56c.92 0 1.67.75 1.67 1.67v7.88c0 4.52-2.68 6.92-7.39 6.92-4.67 0-7.3-2.39-7.3-6.81V3.23c0-.92.75-1.67 1.67-1.67.92 0 1.67.75 1.67 1.67v7.9c0 2.67 1.48 4.17 4.01 4.17s4.01-1.46 4.01-4.06V3.23c0-.92.75-1.67 1.67-1.67zM13.36 1.56c.92 0 1.67.75 1.67 1.67 0 .92-.75 1.67-1.67 1.67H9.43v11.45c0 .92-.75 1.67-1.67 1.67-.92 0-1.67-.75-1.67-1.67V4.9H2.16c-.92 0-1.67-.75-1.67-1.67 0-.92.75-1.67 1.67-1.67h11.2zM29.93 1.56c.92 0 1.67.75 1.67 1.67 0 .92-.75 1.67-1.67 1.67h-8.71v3.22h7.62c.92 0 1.67.75 1.67 1.67 0 .92-.75 1.67-1.67 1.67h-7.62v3.22h8.71c.92 0 1.67.75 1.67 1.67 0 .92-.75 1.67-1.67 1.67H19.55c-.92 0-1.67-.75-1.67-1.67V3.23c0-.92.75-1.67 1.67-1.67h10.38z" fill="#FB7701"/>
</svg>
