<svg xmlns="http://www.w3.org/2000/svg" viewBox="0 0 46.3 9.16">
  <path d="m15.56 1.13v5.6c0 1.23-1.08 2.17-2.51 2.17s-2.51-.94-2.51-2.17V2.45c0-.72.58-1.32 1.31-1.32h.09v5.59c0 .66.59 1.07 1.16 1.07.55 0 1.14-.38 1.14-1.07V1.38c0-.68.56-1.24 1.24-1.24z" fill="#000"/>
  <path d="m18.32 3.11c1.91 0 2.21 1.07 2.21 1.71v4h-.06c-.7 0-1.31-.59-1.31-1.3V4.85c0-.38-.15-.83-.9-.83-.35 0-.55.04-.78.12v4.68h-1.37V3.53c.58-.26 1.52-.42 2.19-.42" fill="#000"/>
  <path d="m22.48 3.11v4.43c0 .7-.57 1.29-1.29 1.29h-.06V3.11zm-.67-1.98c.41 0 .73.31.73.68 0 .37-.33.66-.73.66-.41 0-.75-.3-.75-.66 0-.38.34-.68.75-.68" fill="#000"/>
  <path d="m26.37.92c.64 0 1.24.14 1.74.45v1.35c-.31-.4-.74-.67-1.45-.67-1.39 0-2.24 1.37-2.24 2.78 0 1.34.9 2.79 2.24 2.79.59 0 1.13-.17 1.45-.6v1.33c-.4.3-1.02.46-1.75.46-2.2 0-3.37-2.02-3.37-3.97 0-1.92 1.16-3.92 3.38-3.92" fill="#000"/>
  <path d="m30.53 3.11c.22 0 .51.02.77.06v1.09c-.47-.34-1.09-.22-1.37-.08v3.36c0 .7-.58 1.29-1.29 1.29h-.07V3.55c.53-.26 1.07-.44 1.96-.44" fill="#000"/>
  <path d="m34.84 5.15c-.04-1.13-.74-1.25-1.12-1.25h-.05c-.77.02-1.12.56-1.12 1.57zm1.18.78-3.4.47c.11.93.58 1.42 1.44 1.42.95 0 1.43-.31 1.77-.55v1.13c-.35.18-.99.41-1.91.41-1.66 0-2.65-1.12-2.65-2.92 0-1.74.92-2.88 2.43-2.88 1.49 0 2.32.99 2.32 2.7z" fill="#000"/>
  <path d="m39.59 4.11c-.14-.04-.3-.06-.47-.06-1.12 0-1.36 1.08-1.36 1.98 0 1.25.42 1.88 1.27 1.88.14 0 .46-.03.56-.05zm1.34-3.08v7.62c-.33.07-1.4.15-1.85.15h-.09c-1.66-.02-2.57-.98-2.57-2.7 0-1.74.95-2.87 2.42-2.87.29 0 .53.03.74.08V2.32c0-.71.57-1.3 1.29-1.3z" fill="#000"/>
  <path d="m42.9 3.11v4.43c0 .7-.57 1.29-1.29 1.29h-.06V3.11zm-.67-1.98c.41 0 .73.31.73.68 0 .37-.33.66-.73.66-.41 0-.74-.3-.74-.66 0-.38.34-.68.74-.68" fill="#000"/>
  <path d="m45.29 1.03v1.98h.88v1.09h-.88v3.03c0 .37.12.48.52.48.1 0 .26-.03.36-.07v1.13c-.06.02-.33.13-.68.13-1 0-1.55-.49-1.55-1.38V4.1h-.59V3.01h.59v-.69c0-.7.57-1.29 1.28-1.29z" fill="#000"/>
  <path d="m4.76 2.59.01-.01c.07-.1.04-.17-.01-.21l-.72-.44c-.05-.03-.08-.09-.08-.16 0-.1.06-.18.2-.22.44-.12 2-.19 2.53-.19.18 0 .5 0 .78.01l-.01-.01C6.68.7 5.67.3 4.57.3 2.12.3.13 2.29.13 4.75c0 1.08.38 2.07 1.02 2.84.56-.8 1.94-2.78 2.24-3.19.35-.47 1.14-1.5 1.28-1.68z" fill="#e2001a"/>
  <path d="m1.87 8.27c.75.58 1.69.92 2.71.92 2.46 0 4.45-1.99 4.45-4.45 0-.74-.18-1.44-.5-2.06l.15-.15c.11-.08.33-.38.21-.67-.04-.09-.21-.28-.25-.33l.01.02c.1.33-.11.53-.26.67-.08.08-1.21 1.14-2.54 2.3-1.17 1.02-2.47 2.06-3.23 2.62-1.06.8-1.27.91-1.27.91-.03.02-.07.03-.11.03-.06 0-.12-.03-.16-.08l-.003.03c.11.18.3.4.41.4.03 0 .08-.01.11-.03 0 0 .08-.05.42-.29" fill="#e2001a"/>
  <path d="m4.77 2.58c.07-.1.04-.17-.01-.21l-.72-.44c-.05-.03-.08-.09-.08-.16 0-.1.06-.18.2-.22.44-.12 2-.19 2.53-.19.25 0 .75 0 1.07.02.37.02.64.1.71.28.14.35-.09.56-.25.7-.08.08-1.21 1.14-2.54 2.3-1.17 1.02-2.47 2.06-3.23 2.62-1.06.8-1.27.91-1.27.91-.03.02-.08.03-.11.03-.11 0-.2-.08-.2-.19 0-.04.01-.08.03-.11 0 0 2.1-3.02 2.48-3.53.38-.51 1.3-1.7 1.3-1.7l.08-.11" fill="#fff"/>
</svg>
