<svg xmlns="http://www.w3.org/2000/svg" viewBox="0 0 132.3 153.8">
  <path d="M0 132.3h63.8V68.5H0zm68.5 0h63.8V68.5H68.5zM0 63.8h63.8V0H0zm68.5 0h63.8V0H68.5z" fill="#00b140"/>
  <g fill="#fff">
    <path d="M91.3 37.4V32.6c0-.4-.3-.6-.6-.6h-13c-.1 0-.2-.1-.2-.2v-2.9c0-.1.1-.2.2-.2h11c.4 0 .6-.3.6-.6v-4.2c0-.4-.3-.6-.6-.6h-11c-.1 0-.2-.1-.2-.2v-2.9c0-.1.1-.2.2-.2h12.9c.4 0 .6-.3.6-.6V14.6c-.1-.4-.4-.6-.7-.6H71.2c-.4 0-.6.3-.6.6v22.7c0 .4.3.6.6.6h19.5c.3.1.6-.2.6-.5"/>
    <path d="M28.5 38c.1 0 .2-.1.3-.2L39.2 15c.2-.3 0-.7-.3-.9-.1 0-.2-.1-.3-.1h-6.4c-.4 0-.7.2-.9.6 0 0-3.8 8.4-4.2 9.3-.6 1.4-1.4 4-1.4 4 0 .1-.1.1-.2.1 0 0-.1-.1-.1-.1s-.8-2.6-1.4-4c-.4-1-4.2-9.3-4.2-9.3-.2-.3-.5-.6-.9-.6h-6.4c-.4 0-.6.3-.6.6 0 .1 0 .2.1.3l10.4 22.9c.1.1.2.2.3.2z"/>
    <path d="M34.8 86.8c.4 0 .6.3.6.6v4.8c0 .4-.3.6-.6.6H17.9c-.4 0-.6-.3-.6-.6V69.6c0-.4.3-.6.6-.6h5.7c.4 0 .6.3.6.6v17.1c0 .1.1.2.2.2z"/>
    <path d="M80.5 68.6c-6.9.5-12 6.5-11.5 13.4.5 6.9 6.5 12 13.4 11.5 6.5-.5 11.6-5.9 11.6-12.5-.4-7-6.4-12.6-13.5-12.4m1 18.9c-3.6 0-6.4-2.9-6.4-6.5 0-3.4 2.9-6.2 6.3-6.3 3.6 0 6.5 2.8 6.5 6.4-.1 3.5-2.9 6.4-6.4 6.4"/>
  </g>
  <g fill="#00b140">
    <path d="m24.1 122.8-4.8-10.3c-.1-.1-.1-.2-.3-.2h-2.5c-.1 0-.2.1-.3.2l-4.8 10.3v.1c0 .2.1.3.3.3h2.8c.2 0 .3-.1.4-.3l.6-1.2H20l.6 1.2c.1.2.2.3.4.3h2.8c.2 0 .3-.1.3-.3v-.1m-7.6-3.3c.1-.2.2-.5.3-.7l.9-2.6h.1l.9 2.6c.1.2.2.5.3.7z"/>
    <path d="M40.2 123.2h2.6c.2 0 .3-.1.3-.3v-1.6l1.3-1.4h.1l2.6 3.2c.1.1.2.2.3.2h3.3c.2 0 .3-.1.3-.3 0-.1 0-.1-.1-.2l-4.3-5.3v-.1l4.2-4.5c.1-.1.1-.3 0-.4-.1 0-.1-.1-.2-.1h-3.2c-.1 0-.2 0-.3.1 0 0-2.4 2.6-3.1 3.3-.7.7-.9 1-.9 1h-.1v-4.1c0-.2-.1-.3-.3-.3h-2.6c-.2 0-.3.1-.3.3v10.4c.1.1.3.2.4.2"/>
    <path d="M34.7 123.2H37c.2 0 .3-.1.3-.3v-10.3c0-.2-.1-.3-.3-.3h-2.6c-.2 0-.3.1-.3.3v5.5c0 0 0 .1-.1.1h-.1c0 0-.6-.8-1-1.2l-4.5-4.5c-.1-.1-.2-.1-.3-.1h-2.3c-.2 0-.3.1-.3.3v10.3c0 .2.1.3.3.3h2.6c.2 0 .3-.1.3-.3v-5.5s0-.1.1-.1h.1l1 1.2 4.5 4.5c0 .1.1.1.3.1"/>
    <path d="M9.2 117.3c.5-.5.8-1.2.8-1.9-.2-1.8-1.8-3.2-3.6-3H.3c-.2 0-.3.1-.3.3V123c0 .2.1.3.3.3h6.2c2 .1 3.7-1.4 3.9-3.4 0-1-.5-2-1.2-2.6m-6-2.4h2.7c.4 0 .8.4.8.8 0 .4-.4.8-.8.8H3.3s-.1 0-.1-.1zm3 5.9h-3s-.1 0-.1-.1V119s0-.1.1-.1h3c.5 0 1 .4 1 .9 0 .5-.4 1-.9 1h-.1"/>
  </g>
</svg>
