<?xml version="1.0" encoding="UTF-8" standalone="no"?>
<!-- Created with Inkscape (http://www.inkscape.org/) -->

<svg
   width="132.29166mm"
   height="153.75786mm"
   viewBox="0 0 132.29166 153.75786"
   version="1.1"
   id="svg1"
   inkscape:version="1.4 (86a8ad7, 2024-10-11)"
   sodipodi:docname="Velo Bank 2022 logo.svg"
   xmlns:inkscape="http://www.inkscape.org/namespaces/inkscape"
   xmlns:sodipodi="http://sodipodi.sourceforge.net/DTD/sodipodi-0.dtd"
   xmlns:xlink="http://www.w3.org/1999/xlink"
   xmlns="http://www.w3.org/2000/svg"
   xmlns:svg="http://www.w3.org/2000/svg">
  <sodipodi:namedview
     id="namedview1"
     pagecolor="#ffffff"
     bordercolor="#000000"
     borderopacity="0.25"
     inkscape:showpageshadow="2"
     inkscape:pageopacity="0.0"
     inkscape:pagecheckerboard="0"
     inkscape:deskcolor="#d1d1d1"
     inkscape:document-units="mm"
     inkscape:zoom="0.98646753"
     inkscape:cx="280.79992"
     inkscape:cy="306.64973"
     inkscape:window-width="1920"
     inkscape:window-height="1001"
     inkscape:window-x="-9"
     inkscape:window-y="-9"
     inkscape:window-maximized="1"
     inkscape:current-layer="layer1" />
  <defs
     id="defs1">
    <clipPath
       id="SVGID_00000065795023667208011720000011689449865859618471_">
			<use
   xlink:href="#SVGID_1_"
   style="overflow:visible"
   id="use9"
   x="0"
   y="0"
   width="100%"
   height="100%" />

		</clipPath>
    <rect
       id="SVGID_1_"
       width="106"
       height="123.2"
       x="0"
       y="0" />
  </defs>
  <g
     inkscape:label="Layer 1"
     inkscape:groupmode="layer"
     id="layer1"
     transform="translate(77.787501,-33.60208)">
    <path
       class="st0"
       d="m -77.787501,165.89374 h 63.774566 v -63.77456 h -63.774566 z m 68.5171061,0 H 54.50416 V 102.11918 H -9.2703949 Z M -77.787501,97.376652 h 63.774566 V 33.60208 h -63.774566 z m 68.5171061,0 H 54.50416 V 33.60208 H -9.2703949 Z"
       id="path4"
       inkscape:connector-curvature="0"
       style="fill:#00b140;stroke-width:2.49608" />
    <g
       id="g32"
       transform="matrix(1.2480346,0,0,1.2480346,-77.787501,33.60208)"
       style="stroke-width:2">
	<g
   id="g30"
   style="stroke-width:2">
		<defs
   id="defs7">
			<rect
   id="rect1"
   width="106"
   height="123.2"
   x="0"
   y="0" />

		</defs>

		<clipPath
   id="clipPath1">
			<use
   xlink:href="#SVGID_1_"
   style="overflow:visible"
   id="use1"
   x="0"
   y="0"
   width="100%"
   height="100%" />

		</clipPath>

		<g
   clip-path="url(#SVGID_00000065795023667208011720000011689449865859618471_)"
   id="g28"
   style="stroke-width:2">
			<path
   class="st2"
   d="M 91.3,37.4 V 32.6 C 91.3,32.2 91,32 90.7,32 v 0 h -13 c -0.1,0 -0.2,-0.1 -0.2,-0.2 v 0 -2.9 c 0,-0.1 0.1,-0.2 0.2,-0.2 v 0 h 11 c 0.4,0 0.6,-0.3 0.6,-0.6 0,0 0,0 0,0 v -4.2 c 0,-0.4 -0.3,-0.6 -0.6,-0.6 v 0 h -11 c -0.1,0 -0.2,-0.1 -0.2,-0.2 v 0 -2.9 c 0,-0.1 0.1,-0.2 0.2,-0.2 v 0 h 12.9 c 0.4,0 0.6,-0.3 0.6,-0.6 0,0 0,0 0,0 V 14.6 C 91.2,14.2 90.9,14 90.6,14 v 0 H 71.2 c -0.4,0 -0.6,0.3 -0.6,0.6 0,0 0,0 0,0 v 22.7 c 0,0.4 0.3,0.6 0.6,0.6 v 0 h 19.5 c 0.3,0.1 0.6,-0.2 0.6,-0.5 0,0 0,0 0,0"
   id="path12"
   inkscape:connector-curvature="0"
   style="fill:#ffffff;stroke-width:2" />

			<path
   class="st2"
   d="m 28.5,38 c 0.1,0 0.2,-0.1 0.3,-0.2 L 39.2,15 c 0.2,-0.3 0,-0.7 -0.3,-0.9 -0.1,0 -0.2,-0.1 -0.3,-0.1 h -6.4 c -0.4,0 -0.7,0.2 -0.9,0.6 0,0 -3.8,8.4 -4.2,9.3 -0.6,1.4 -1.4,4 -1.4,4 0,0.1 -0.1,0.1 -0.2,0.1 0,0 -0.1,-0.1 -0.1,-0.1 0,0 -0.8,-2.6 -1.4,-4 -0.4,-1 -4.2,-9.3 -4.2,-9.3 C 19.6,14.3 19.3,14 18.9,14 h -6.4 c -0.4,0 -0.6,0.3 -0.6,0.6 0,0.1 0,0.2 0.1,0.3 l 10.4,22.9 c 0.1,0.1 0.2,0.2 0.3,0.2 z"
   id="path14"
   inkscape:connector-curvature="0"
   style="fill:#ffffff;stroke-width:2" />

			<path
   class="st2"
   d="m 34.8,86.8 c 0.4,0 0.6,0.3 0.6,0.6 v 0 4.8 c 0,0.4 -0.3,0.6 -0.6,0.6 0,0 0,0 0,0 H 17.9 c -0.4,0 -0.6,-0.3 -0.6,-0.6 v 0 -22.6 c 0,-0.4 0.3,-0.6 0.6,-0.6 0,0 0,0 0,0 h 5.7 c 0.4,0 0.6,0.3 0.6,0.6 v 0 17.1 c 0,0.1 0.1,0.2 0.2,0.2 v 0 z"
   id="path16"
   inkscape:connector-curvature="0"
   style="fill:#ffffff;stroke-width:2" />

			<path
   class="st2"
   d="M 80.5,68.6 C 73.6,69.1 68.5,75.1 69,82 69.5,88.9 75.5,94 82.4,93.5 88.9,93 94,87.6 94,81 93.6,74 87.6,68.4 80.5,68.6 m 1,18.9 c -3.6,0 -6.4,-2.9 -6.4,-6.5 0,-3.4 2.9,-6.2 6.3,-6.3 3.6,0 6.5,2.8 6.5,6.4 v 0 c -0.1,3.5 -2.9,6.4 -6.4,6.4"
   id="path18"
   inkscape:connector-curvature="0"
   style="fill:#ffffff;stroke-width:2" />

			<path
   class="st0"
   d="m 24.1,122.8 c 0,0 -4.8,-10.3 -4.8,-10.3 -0.1,-0.1 -0.1,-0.2 -0.3,-0.2 h -2.5 c -0.1,0 -0.2,0.1 -0.3,0.2 l -4.8,10.3 c 0,0 0,0.1 0,0.1 0,0.2 0.1,0.3 0.3,0.3 0,0 0,0 0,0 h 2.8 c 0.2,0 0.3,-0.1 0.4,-0.3 0,-0.1 0.3,-0.6 0.6,-1.2 H 20 c 0.3,0.6 0.5,1.1 0.6,1.2 0.1,0.2 0.2,0.3 0.4,0.3 h 2.8 c 0.2,0 0.3,-0.1 0.3,-0.3 v 0 c 0,0 0,0 0,-0.1 m -7.6,-3.3 c 0.1,-0.2 0.2,-0.5 0.3,-0.7 l 0.9,-2.6 c 0,0 0.1,-0.1 0.1,0 0,0 0,0 0,0 l 0.9,2.6 c 0.1,0.2 0.2,0.5 0.3,0.7 z"
   id="path20"
   inkscape:connector-curvature="0"
   style="fill:#00b140;stroke-width:2" />

			<path
   class="st0"
   d="m 40.2,123.2 h 2.6 c 0.2,0 0.3,-0.1 0.3,-0.3 v 0 -1.6 c 0,0 0,0 0,0 l 1.3,-1.4 c 0,0 0.1,0 0.1,0 0,0 0,0 0,0 l 2.6,3.2 c 0.1,0.1 0.2,0.2 0.3,0.2 h 3.3 c 0.2,0 0.3,-0.1 0.3,-0.3 0,-0.1 0,-0.1 -0.1,-0.2 l -4.3,-5.3 c 0,0 0,-0.1 0,-0.1 l 4.2,-4.5 c 0.1,-0.1 0.1,-0.3 0,-0.4 -0.1,0 -0.1,-0.1 -0.2,-0.1 h -3.2 c -0.1,0 -0.2,0 -0.3,0.1 0,0 -2.4,2.6 -3.1,3.3 -0.7,0.7 -0.9,1 -0.9,1 0,0 -0.1,0 -0.1,0 0,0 0,0 0,-0.1 v -4.1 c 0,-0.2 -0.1,-0.3 -0.3,-0.3 v 0 h -2.6 c -0.2,0 -0.3,0.1 -0.3,0.3 v 0 10.4 c 0.1,0.1 0.3,0.2 0.4,0.2 v 0"
   id="path22"
   inkscape:connector-curvature="0"
   style="fill:#00b140;stroke-width:2" />

			<path
   class="st0"
   d="M 34.7,123.2 H 37 c 0.2,0 0.3,-0.1 0.3,-0.3 v 0 -10.3 c 0,-0.2 -0.1,-0.3 -0.3,-0.3 v 0 h -2.6 c -0.2,0 -0.3,0.1 -0.3,0.3 v 0 5.5 c 0,0 0,0.1 -0.1,0.1 0,0 0,0 -0.1,0 0,0 -0.6,-0.8 -1,-1.2 l -4.5,-4.5 c -0.1,-0.1 -0.2,-0.1 -0.3,-0.1 h -2.3 c -0.2,0 -0.3,0.1 -0.3,0.3 v 0 10.3 c 0,0.2 0.1,0.3 0.3,0.3 v 0 h 2.6 c 0.2,0 0.3,-0.1 0.3,-0.3 v 0 -5.5 c 0,0 0,-0.1 0.1,-0.1 0,0 0,0 0.1,0 0,0 0.6,0.8 1,1.2 l 4.5,4.5 c 0,0.1 0.1,0.1 0.3,0.1"
   id="path24"
   inkscape:connector-curvature="0"
   style="fill:#00b140;stroke-width:2" />

			<path
   class="st0"
   d="m 9.2,117.3 c 0.5,-0.5 0.8,-1.2 0.8,-1.9 -0.2,-1.8 -1.8,-3.2 -3.6,-3 H 0.3 c -0.2,0 -0.3,0.1 -0.3,0.3 0,0 0,0 0,0 V 123 c 0,0.2 0.1,0.3 0.3,0.3 0,0 0,0 0,0 h 6.2 c 2,0.1 3.7,-1.4 3.9,-3.4 0,-1 -0.5,-2 -1.2,-2.6 m -6,-2.4 c 0,0 0,0 0,0 L 6,114.8 c 0.4,0 0.8,0.4 0.8,0.8 0,0.4 -0.4,0.8 -0.8,0.8 H 3.3 c 0,0 -0.1,0 -0.1,-0.1 z m 3,5.9 h -3 c 0,0 -0.1,0 -0.1,-0.1 V 119 c 0,0 0,-0.1 0.1,-0.1 h 3 c 0.5,0 1,0.4 1,0.9 0,0.5 -0.4,1 -0.9,1 0,0 0,0 -0.1,0"
   id="path26"
   inkscape:connector-curvature="0"
   style="fill:#00b140;stroke-width:2" />

		</g>

	</g>

</g>
  </g>
</svg>
